<?xml version="1.0" standalone="no"?>
<!DOCTYPE svg PUBLIC "-//W3C//DTD SVG 20010904//EN"
 "http://www.w3.org/TR/2001/REC-SVG-20010904/DTD/svg10.dtd">
<svg version="1.0" xmlns="http://www.w3.org/2000/svg"
 width="256.000000pt" height="256.000000pt" viewBox="0 0 256.000000 256.000000"
 preserveAspectRatio="xMidYMid meet">
<metadata>
Created by potrace 1.14, written by Peter Selinger 2001-2017
</metadata>
<g transform="translate(0.000000,256.000000) scale(0.100000,-0.100000)"
fill="#000000" stroke="none">
<path d="M119 2468 c-129 -124 -143 -155 -94 -204 20 -20 32 -24 57 -20 30 4
69 -18 111 -63 13 -14 68 -68 78 -78 5 -4 21 -22 37 -39 15 -17 36 -35 47 -41
24 -14 23 -6 26 -678 1 -431 1 -442 26 -541 l24 -102 -34 -83 c-19 -46 -62
-151 -96 -233 -34 -81 -60 -150 -58 -152 2 -3 102 32 222 77 195 74 219 81
238 69 76 -48 161 -90 297 -147 85 -36 174 -76 197 -90 49 -28 103 -86 103
-111 1 -10 6 -5 14 13 28 63 88 101 290 185 124 51 204 90 273 132 l33 20 201
-76 c111 -42 204 -74 206 -72 3 2 -34 97 -81 210 l-86 205 19 43 c22 53 49
158 55 218 3 25 5 287 6 584 l2 539 27 38 c14 20 36 42 48 48 11 5 29 23 39
40 10 17 22 31 26 31 5 0 22 13 39 30 25 24 38 29 64 24 42 -6 74 20 81 67 6
35 3 40 -85 127 -50 50 -101 98 -113 106 -33 23 -65 20 -95 -10 -21 -21 -24
-31 -19 -64 4 -26 2 -41 -8 -49 -11 -9 -15 -7 -19 12 -9 35 -58 76 -123 102
l-59 24 -740 -2 -740 -2 -50 -23 c-27 -12 -58 -30 -68 -40 -25 -23 -57 -86
-57 -113 0 -20 -4 -18 -34 17 -30 33 -34 44 -29 74 6 46 -19 79 -67 86 -33 5
-40 0 -131 -88z"/>
</g>
</svg>
